<svg xmlns="http://www.w3.org/2000/svg" xmlns:xlink="http://www.w3.org/1999/xlink" width="501.433" height="634.096" viewBox="0 0 501.433 634.096">
  <defs>
    <linearGradient id="linear-gradient" x1="0.5" x2="0.5" y2="1" gradientUnits="objectBoundingBox">
      <stop offset="0" stop-color="#fe8a8a"/>
      <stop offset="1" stop-color="#fd5f87"/>
    </linearGradient>
    <linearGradient id="linear-gradient-2" x1="0.5" y1="1" x2="0.5" gradientUnits="objectBoundingBox">
      <stop offset="0" stop-color="#fd3a84"/>
      <stop offset="1" stop-color="#ffa68d"/>
    </linearGradient>
  </defs>
  <g id="Group_1262" data-name="Group 1262" transform="translate(40.717 129.409)">
    <path id="Path_527" data-name="Path 527" d="M417.073,334H0V62l353.605,64.422Z" transform="translate(0 -32.413)" fill="url(#linear-gradient)"/>
    <path id="Path_528" data-name="Path 528" d="M348,652.82h-90.48s-1.834-26.9,9.017-27.205,9.629,11.921,23.231-4.891,30.109-15.9,32.249-5.961-4.127,17.882,7.336,15.437S357.32,634.174,348,652.82Z" transform="translate(-203.763 -368.886)" fill="#fff"/>
    <path id="Path_529" data-name="Path 529" d="M348.913,652.653l-.305-.012c.712-17.71,4.421-29.089,7.407-35.517,3.242-6.979,6.367-9.8,6.4-9.832l.2.228c-.031.027-3.119,2.824-6.335,9.756C353.312,623.677,349.623,635.01,348.913,652.653Z" transform="translate(-251.446 -368.713)" fill="#fff"/>
    <path id="Path_530" data-name="Path 530" d="M417.55,680.572l-.293-.085a47.416,47.416,0,0,1,11.938-19.862l.205.226a47.1,47.1,0,0,0-11.85,19.721Z" transform="translate(-287.335 -396.595)" fill="#fff"/>
    <path id="Path_531" data-name="Path 531" d="M278.719,673.218l-.3-.042a33.292,33.292,0,0,0-2.994-19.459,26.792,26.792,0,0,0-4.726-6.9l.212-.221a27.129,27.129,0,0,1,4.788,6.981A33.6,33.6,0,0,1,278.719,673.218Z" transform="translate(-210.714 -389.263)" fill="#fff"/>
    <path id="Path_532" data-name="Path 532" d="M597.027,403.293H179V130.335H597.027Zm-417.073-.954H596.073V131.289H179.954Z" transform="translate(-162.775 -119.359)" fill="#5d80a8"/>
    <path id="Path_533" data-name="Path 533" d="M345.291,636.349H225.2l-.028-.407c-.069-1.012-1.6-24.883,6.134-33.4a8.471,8.471,0,0,1,6.19-2.97c5.042-.143,8.21,1.745,10.765,3.261,4.817,2.857,8,4.745,19.568-9.554,12.533-15.491,26.056-18.823,33.83-16.97,5.023,1.2,8.484,4.582,9.5,9.286a41.208,41.208,0,0,1,.408,12c-.263,3.6-.47,6.44,1.008,7.728,1.234,1.075,3.7,1.172,7.749.307,8.243-1.758,19.745-.254,25.518,7.205,3.106,4.013,5.553,11.308-.428,23.27Zm-119.272-.873H344.751c4.457-9.042,4.6-16.681.4-22.1-5.3-6.843-16.407-8.644-24.646-6.886-4.4.94-7.027.784-8.5-.5-1.807-1.574-1.585-4.608-1.3-8.45a40.482,40.482,0,0,0-.391-11.755c-.94-4.362-4.164-7.5-8.847-8.621-7.526-1.8-20.671,1.5-32.949,16.67-12.043,14.885-15.671,12.734-20.692,9.756-2.587-1.534-5.524-3.274-10.3-3.139a7.63,7.63,0,0,0-5.569,2.685C225,610.783,225.848,632.249,226.019,635.476Z" transform="translate(-186.826 -352.272)" fill="#fff"/>
    <rect id="Rectangle_3256" data-name="Rectangle 3256" width="85.479" height="0.96" transform="translate(60.729 127.099)" fill="#fff"/>
    <rect id="Rectangle_3257" data-name="Rectangle 3257" width="85.479" height="0.96" transform="translate(60.729 133.822)" fill="#fff"/>
    <rect id="Rectangle_3258" data-name="Rectangle 3258" width="85.479" height="0.96" transform="translate(60.729 140.546)" fill="#fff"/>
    <rect id="Rectangle_3259" data-name="Rectangle 3259" width="85.479" height="0.96" transform="translate(60.729 96.257)" fill="#fff"/>
    <rect id="Rectangle_3260" data-name="Rectangle 3260" width="85.479" height="0.96" transform="translate(60.729 102.98)" fill="#fff"/>
    <rect id="Rectangle_3261" data-name="Rectangle 3261" width="85.479" height="0.96" transform="translate(60.729 109.703)" fill="#fff"/>
    <rect id="Rectangle_3262" data-name="Rectangle 3262" width="19.227" height="15.622" transform="translate(62.467 72.132)" fill="#fff"/>
    <path id="Path_534" data-name="Path 534" d="M288.378,268.2H268.35V251.777h20.028Zm-19.227-.8h18.425v-14.82H269.151Z" transform="translate(-209.487 -182.849)" fill="#fff"/>
    <ellipse id="Ellipse_1153" data-name="Ellipse 1153" cx="4.5" cy="3.5" rx="4.5" ry="3.5" transform="translate(39 73.547)" fill="#fff"/>
    <rect id="Rectangle_3263" data-name="Rectangle 3263" width="85.479" height="0.96" transform="translate(170.485 236.855)" fill="#fff"/>
    <rect id="Rectangle_3264" data-name="Rectangle 3264" width="85.479" height="0.96" transform="translate(170.485 243.578)" fill="#fff"/>
    <rect id="Rectangle_3265" data-name="Rectangle 3265" width="85.479" height="0.96" transform="translate(170.485 250.302)" fill="#fff"/>
    <rect id="Rectangle_3266" data-name="Rectangle 3266" width="85.479" height="0.96" transform="translate(170.485 206.013)" fill="#fff"/>
    <rect id="Rectangle_3267" data-name="Rectangle 3267" width="85.479" height="0.96" transform="translate(170.485 212.736)" fill="#fff"/>
    <rect id="Rectangle_3268" data-name="Rectangle 3268" width="85.479" height="0.96" transform="translate(170.485 219.459)" fill="#fff"/>
    <rect id="Rectangle_3269" data-name="Rectangle 3269" width="19.227" height="15.622" transform="translate(172.223 181.888)" fill="#fff"/>
    <path id="Path_535" data-name="Path 535" d="M518.378,498.2H498.35V481.777h20.028Zm-19.227-.8h18.425v-14.82H499.151Z" transform="translate(-329.731 -303.093)" fill="#fff"/>
    <ellipse id="Ellipse_1154" data-name="Ellipse 1154" cx="4" cy="4.5" rx="4" ry="4.5" transform="translate(149 182.547)" fill="#fff"/>
    <path id="Path_550" data-name="Path 550" d="M571.676,478.922a9.5,9.5,0,1,0,9.5,9.5,9.5,9.5,0,0,0-9.5-9.5Zm-1.639,13.755-4.087-4.088,1.146-1.146,2.945,2.945,6.216-6.216,1.146,1.147Z" transform="translate(-363.098 -301.601)" fill="#fff"/>
    <path id="Path_551" data-name="Path 551" d="M339.676,248.922a9.5,9.5,0,1,0,9.5,9.5,9.5,9.5,0,0,0-9.5-9.5Zm-1.639,13.755-4.088-4.088,1.147-1.147,2.945,2.945,6.216-6.216,1.146,1.147Z" transform="translate(-241.809 -181.357)" fill="#fff"/>
    <g id="usb" transform="translate(-75.717 -166.593)">
      <g id="Group_1271" data-name="Group 1271" transform="translate(51 53.185)">
        <g id="Group_1270" data-name="Group 1270">
          <path id="Path_613" data-name="Path 613" d="M79.055,105.837A17.851,17.851,0,0,0,97.11,88.2V35.279h54.165a17.851,17.851,0,0,0,18.055-17.64A17.851,17.851,0,0,0,151.276,0H79.055A17.851,17.851,0,0,0,61,17.64V88.2A17.851,17.851,0,0,0,79.055,105.837Zm72.22,460.98H97.11V513.9a18.06,18.06,0,0,0-36.11,0v70.558A17.851,17.851,0,0,0,79.055,602.1h72.22a17.644,17.644,0,1,0,0-35.279ZM512.378,0h-72.22A17.851,17.851,0,0,0,422.1,17.64a17.851,17.851,0,0,0,18.055,17.64h54.165V88.2a18.06,18.06,0,0,0,36.11,0V17.64A17.851,17.851,0,0,0,512.378,0Zm0,496.259A17.851,17.851,0,0,0,494.323,513.9v52.919H440.158a17.644,17.644,0,1,0,0,35.279h72.22a17.851,17.851,0,0,0,18.055-17.639V513.9A17.851,17.851,0,0,0,512.378,496.259Z" transform="translate(-61)" stroke="#fff" stroke-width="32" fill="url(#linear-gradient-2)"/>
        </g>
      </g>
    </g>
  </g>
</svg>
