<svg xmlns="http://www.w3.org/2000/svg" xmlns:xlink="http://www.w3.org/1999/xlink" width="584.638" height="710.815" viewBox="0 0 584.638 710.815">
  <defs>
    <linearGradient id="linear-gradient" x1="0.5" x2="0.5" y2="1" gradientUnits="objectBoundingBox">
      <stop offset="0" stop-color="#d2b541"/>
      <stop offset="1" stop-color="#fd3c84"/>
    </linearGradient>
    <linearGradient id="linear-gradient-2" x1="0.5" y1="1" x2="0.5" gradientUnits="objectBoundingBox">
      <stop offset="0" stop-color="#fd3a84"/>
      <stop offset="1" stop-color="#ffa68d"/>
    </linearGradient>
  </defs>
  <g id="_1" data-name="1" transform="translate(91.244 164.215)">
    <path id="Path_527" data-name="Path 527" d="M425.514,339.51H0V62l360.762,65.726Z" transform="translate(-20.591 -0.233)" fill="url(#linear-gradient)"/>
    <path id="Path_528" data-name="Path 528" d="M349.831,653.735H257.52s-1.871-27.444,9.2-27.756,9.824,12.163,23.7-4.99,30.718-16.217,32.9-6.081-4.21,18.244,7.485,15.749S359.343,634.711,349.831,653.735Z" transform="translate(-223.267 -332.472)" fill="#fff"/>
    <path id="Path_529" data-name="Path 529" d="M348.92,653.571l-.312-.012c.727-18.069,4.511-29.678,7.557-36.236,3.308-7.12,6.5-10,6.527-10.031l.207.233c-.031.028-3.182,2.882-6.463,9.953C353.407,624.009,349.644,635.571,348.92,653.571Z" transform="translate(-270.07 -332.302)" fill="#fff"/>
    <path id="Path_530" data-name="Path 530" d="M417.555,680.976l-.3-.087a48.375,48.375,0,0,1,12.18-20.263l.209.231a48.048,48.048,0,0,0-12.09,20.12Z" transform="translate(-305.296 -359.669)" fill="#fff"/>
    <path id="Path_531" data-name="Path 531" d="M278.882,673.757l-.309-.043a33.966,33.966,0,0,0-3.055-19.853,27.334,27.334,0,0,0-4.822-7.036l.216-.225a27.679,27.679,0,0,1,4.885,7.123A34.277,34.277,0,0,1,278.882,673.757Z" transform="translate(-230.09 -352.472)" fill="#fff"/>
    <path id="Path_532" data-name="Path 532" d="M605.488,408.818H179V130.335H605.488Zm-425.514-.974h424.54V131.309H179.974Z" transform="translate(-183.038 -87.555)" fill="#5d80a8"/>
    <path id="Path_533" data-name="Path 533" d="M347.725,637.573H225.2l-.028-.415c-.07-1.032-1.633-25.387,6.258-34.076a8.643,8.643,0,0,1,6.316-3.031c5.144-.146,8.376,1.78,10.983,3.327,4.914,2.915,8.161,4.841,19.964-9.747,12.787-15.8,26.583-19.2,34.514-17.314,5.124,1.222,8.656,4.675,9.69,9.474a42.044,42.044,0,0,1,.417,12.245c-.268,3.671-.48,6.571,1.028,7.885,1.259,1.1,3.771,1.2,7.906.314,8.41-1.794,20.145-.259,26.035,7.351,3.169,4.094,5.665,11.537-.437,23.741Zm-121.686-.891H347.174c4.547-9.226,4.689-17.019.407-22.552-5.4-6.981-16.739-8.819-25.145-7.025-4.492.959-7.169.8-8.676-.513-1.843-1.606-1.617-4.7-1.331-8.621a41.3,41.3,0,0,0-.4-11.993c-.959-4.45-4.248-7.656-9.026-8.8-7.678-1.832-21.089,1.525-33.616,17.008-12.287,15.187-15.989,12.992-21.11,9.953-2.639-1.565-5.636-3.341-10.5-3.2a7.784,7.784,0,0,0-5.682,2.739C225,611.49,225.866,633.39,226.039,636.683Z" transform="translate(-206.644 -316.165)" fill="#fff"/>
    <rect id="Rectangle_3256" data-name="Rectangle 3256" width="87.209" height="0.98" transform="translate(41.367 161.254)" fill="#fff"/>
    <rect id="Rectangle_3257" data-name="Rectangle 3257" width="87.209" height="0.98" transform="translate(41.367 168.113)" fill="#fff"/>
    <rect id="Rectangle_3258" data-name="Rectangle 3258" width="87.209" height="0.98" transform="translate(41.367 174.972)" fill="#fff"/>
    <rect id="Rectangle_3259" data-name="Rectangle 3259" width="87.209" height="0.98" transform="translate(41.367 129.787)" fill="#fff"/>
    <rect id="Rectangle_3260" data-name="Rectangle 3260" width="87.209" height="0.98" transform="translate(41.367 136.646)" fill="#fff"/>
    <rect id="Rectangle_3261" data-name="Rectangle 3261" width="87.209" height="0.98" transform="translate(41.367 143.505)" fill="#fff"/>
    <rect id="Rectangle_3262" data-name="Rectangle 3262" width="19.616" height="15.938" transform="translate(43.142 105.174)" fill="#fff"/>
    <path id="Path_534" data-name="Path 534" d="M288.783,268.532H268.35V251.777h20.433Zm-19.616-.818h18.8v-15.12h-18.8Z" transform="translate(-228.887 -149.872)" fill="#fff"/>
    <ellipse id="Ellipse_1153" data-name="Ellipse 1153" cx="4.591" cy="3.571" rx="4.591" ry="3.571" transform="translate(19.2 106.618)" fill="#fff"/>
    <rect id="Rectangle_3263" data-name="Rectangle 3263" width="87.209" height="0.98" transform="translate(153.346 273.231)" fill="#fff"/>
    <rect id="Rectangle_3264" data-name="Rectangle 3264" width="87.209" height="0.98" transform="translate(153.346 280.091)" fill="#fff"/>
    <rect id="Rectangle_3265" data-name="Rectangle 3265" width="87.209" height="0.98" transform="translate(153.346 286.95)" fill="#fff"/>
    <rect id="Rectangle_3266" data-name="Rectangle 3266" width="87.209" height="0.98" transform="translate(153.346 241.765)" fill="#fff"/>
    <rect id="Rectangle_3267" data-name="Rectangle 3267" width="87.209" height="0.98" transform="translate(153.346 248.624)" fill="#fff"/>
    <rect id="Rectangle_3268" data-name="Rectangle 3268" width="87.209" height="0.98" transform="translate(153.346 255.483)" fill="#fff"/>
    <rect id="Rectangle_3269" data-name="Rectangle 3269" width="19.616" height="15.938" transform="translate(155.119 217.152)" fill="#fff"/>
    <path id="Path_535" data-name="Path 535" d="M518.783,498.532H498.35V481.777h20.433Zm-19.616-.817h18.8v-15.12h-18.8Z" transform="translate(-346.909 -267.894)" fill="#fff"/>
    <ellipse id="Ellipse_1154" data-name="Ellipse 1154" cx="4.081" cy="4.591" rx="4.081" ry="4.591" transform="translate(131.426 217.824)" fill="#fff"/>
    <path id="Path_550" data-name="Path 550" d="M571.868,478.922a9.695,9.695,0,1,0,9.695,9.695A9.695,9.695,0,0,0,571.868,478.922ZM570.2,492.956l-4.17-4.17,1.17-1.17,3,3,6.341-6.342,1.17,1.17Z" transform="translate(-379.66 -266.43)" fill="#fff"/>
    <path id="Path_551" data-name="Path 551" d="M339.868,248.922a9.7,9.7,0,1,0,9.695,9.695,9.695,9.695,0,0,0-9.695-9.695ZM338.2,262.955l-4.17-4.17,1.17-1.17,3,3,6.341-6.342,1.17,1.17Z" transform="translate(-260.611 -148.407)" fill="#fff"/>
    <g id="usb" transform="translate(-75.244 -178.215)">
      <path id="Path_613" data-name="Path 613" d="M82.255,154.6a21.015,21.015,0,0,0,21.255-20.766v-62.3h63.766a20.772,20.772,0,1,0,0-41.532H82.255A21.015,21.015,0,0,0,61,50.766V133.83A21.015,21.015,0,0,0,82.255,154.6Zm85.021,512.687H103.511v-62.3a21.261,21.261,0,0,0-42.511,0v83.064a21.015,21.015,0,0,0,21.255,20.766h85.021a20.772,20.772,0,1,0,0-41.532ZM592.383,30H507.362a20.772,20.772,0,1,0,0,41.532h63.766v62.3a21.261,21.261,0,0,0,42.511,0V50.766A21.015,21.015,0,0,0,592.383,30Zm0,554.219a21.015,21.015,0,0,0-21.255,20.766v62.3H507.362a20.772,20.772,0,1,0,0,41.532h85.021a21.015,21.015,0,0,0,21.255-20.766V604.985A21.015,21.015,0,0,0,592.383,584.219Z" transform="translate(-61)" stroke="#fff" stroke-width="32" fill="url(#linear-gradient-2)"/>
    </g>
  </g>
</svg>
